<?xml version="1.0" encoding="utf-8"?>
<!-- Generator: Adobe Illustrator 26.3.1, SVG Export Plug-In . SVG Version: 6.00 Build 0)  -->
<svg version="1.1" id="Camada_1" xmlns="http://www.w3.org/2000/svg" xmlns:xlink="http://www.w3.org/1999/xlink" x="0px" y="0px"
	 viewBox="0 0 460.91 259.09" style="enable-background:new 0 0 460.91 259.09;" xml:space="preserve">
<style type="text/css">
	.st0{fill:#18181D;}
	.st1{clip-path:url(#SVGID_00000075878754406904629310000016488922996409648014_);}
	.st2{fill:#E40B2F;}
	.st3{opacity:0.3;}
</style>
<g>
	<rect x="0" y="0" class="st0" width="460.91" height="259.09"/>
	<g>
		<defs>
			<rect id="SVGID_1_" x="0" y="0" width="460.91" height="259.09"/>
		</defs>
		<clipPath id="SVGID_00000116943251424671398240000010836904120427729832_">
			<use xlink:href="#SVGID_1_"  style="overflow:visible;"/>
		</clipPath>
		<g style="clip-path:url(#SVGID_00000116943251424671398240000010836904120427729832_);">
			<g id="triangle36_448_">
				<path class="st2" d="M358.16,169.59c-0.06,0-0.12-0.02-0.18-0.05l-17.84-9.88c-0.13-0.07-0.2-0.21-0.19-0.35
					c0.01-0.14,0.1-0.27,0.23-0.32l22.61-9.24c0.13-0.05,0.28-0.03,0.39,0.06c0.11,0.09,0.15,0.24,0.12,0.38l-4.78,19.12
					c-0.03,0.11-0.11,0.21-0.21,0.25C358.27,169.58,358.22,169.59,358.16,169.59z M341.2,159.38l16.72,9.27l4.48-17.93L341.2,159.38
					z"/>
			</g>
			<g id="triangle36_447_">
				<path class="st2" d="M340.33,159.7c-0.12,0-0.24-0.06-0.31-0.16c-0.1-0.14-0.09-0.34,0.03-0.47l27.35-29.71
					c0.12-0.13,0.3-0.16,0.45-0.08c0.15,0.08,0.23,0.25,0.19,0.42l-4.73,20.47c-0.03,0.12-0.11,0.22-0.22,0.26l-22.61,9.24
					C340.42,159.69,340.38,159.7,340.33,159.7z M366.99,130.92l-25.25,27.43l20.88-8.53L366.99,130.92z"/>
			</g>
			<g id="triangle36_446_">
				<path class="st2" d="M362.94,150.46c-0.05,0-0.1-0.01-0.15-0.03c-0.17-0.07-0.26-0.25-0.22-0.43l4.73-20.47
					c0.02-0.07,0.05-0.13,0.1-0.18l24.18-23.48c0.14-0.13,0.35-0.14,0.5-0.02c0.15,0.12,0.18,0.33,0.08,0.49l-28.91,43.95
					C363.18,150.4,363.07,150.46,362.94,150.46z M368.02,129.81l-4.24,18.32l25.88-39.34L368.02,129.81z"/>
			</g>
			<g id="triangle36_445_">
				<path class="st2" d="M362.94,150.46c-0.11,0-0.22-0.05-0.29-0.14c-0.1-0.13-0.11-0.3-0.02-0.44l28.91-43.95
					c0.08-0.12,0.22-0.18,0.37-0.16l59.59,9.11c0.17,0.03,0.3,0.16,0.31,0.33c0.02,0.17-0.08,0.33-0.23,0.39l-88.5,34.84
					C363.03,150.46,362.99,150.46,362.94,150.46z M392.04,106.54l-28.13,42.76l86.11-33.9L392.04,106.54z"/>
			</g>
			<g id="triangle36_444_">
				<path class="st2" d="M451.44,115.62c-0.02,0-0.04,0-0.06-0.01l-59.59-9.11c-0.11-0.02-0.2-0.08-0.26-0.17
					c-0.06-0.09-0.07-0.21-0.04-0.31l6.08-20.54c0.03-0.11,0.11-0.2,0.22-0.24c0.11-0.04,0.22-0.04,0.32,0.02l53.45,29.62
					c0.16,0.05,0.27,0.19,0.27,0.36C451.84,115.46,451.66,115.63,451.44,115.62L451.44,115.62z M392.34,105.83l57.09,8.73
					l-51.27-28.41L392.34,105.83z"/>
			</g>
			<g id="triangle36_443_">
				<path class="st2" d="M312.76,203.59c-0.09,0-0.18-0.03-0.25-0.1c-0.13-0.12-0.16-0.32-0.06-0.48l27.57-43.88
					c0.11-0.17,0.32-0.22,0.5-0.13l17.84,9.88c0.11,0.06,0.18,0.18,0.19,0.3c0.01,0.13-0.05,0.25-0.15,0.33l-45.4,34
					C312.92,203.56,312.84,203.59,312.76,203.59z M340.46,159.83l-26.3,41.87l43.32-32.44L340.46,159.83z"/>
			</g>
			<g id="triangle36_442_">
				<path class="st2" d="M341.1,246.65c-0.12,0-0.24-0.06-0.31-0.17l-28.34-43.07c-0.11-0.17-0.07-0.39,0.09-0.51l45.4-34
					c0.13-0.09,0.3-0.1,0.43-0.01c0.13,0.08,0.2,0.24,0.16,0.4l-17.07,77.07c-0.03,0.15-0.15,0.26-0.3,0.29
					C341.14,246.65,341.12,246.65,341.1,246.65z M313.27,203.3l27.65,42.03l16.66-75.21L313.27,203.3z"/>
			</g>
			<g id="triangle36_441_">
				<path class="st2" d="M341.1,246.65c-0.08,0-0.16-0.03-0.22-0.07c-0.12-0.09-0.18-0.24-0.14-0.38l17.07-77.07
					c0.04-0.18,0.17-0.29,0.38-0.29l111.98,3.76c0.17,0.01,0.31,0.12,0.35,0.29c0.04,0.16-0.03,0.33-0.18,0.42L341.28,246.6
					C341.23,246.64,341.16,246.65,341.1,246.65z M358.46,169.6l-16.82,75.94L468.8,173.3L358.46,169.6z"/>
			</g>
			<g id="triangle36_440_">
				<path class="st2" d="M470.16,173.34c0,0-0.01,0-0.02,0c0,0-0.01,0-0.01,0l-111.98-3.76c-0.11,0-0.22-0.06-0.29-0.15
					c-0.07-0.09-0.09-0.21-0.06-0.32l4.78-19.12c0.05-0.2,0.24-0.32,0.44-0.28l107.16,22.87c0.2,0.01,0.35,0.17,0.35,0.37
					C470.53,173.18,470.37,173.34,470.16,173.34z M358.64,168.85l107.28,3.6l-102.71-21.92L358.64,168.85z"/>
			</g>
			<g id="triangle36_439_">
				<path class="st2" d="M470.14,173.34c-0.03,0-0.05,0-0.08-0.01l-107.2-22.88c-0.16-0.04-0.28-0.17-0.29-0.34
					c-0.01-0.16,0.08-0.32,0.24-0.38l88.5-34.84c0.1-0.04,0.21-0.03,0.3,0.01c0.09,0.04,0.16,0.12,0.2,0.22l18.66,57.62
					c0.04,0.06,0.07,0.14,0.07,0.22C470.53,173.18,470.39,173.36,470.14,173.34C470.15,173.34,470.14,173.34,470.14,173.34z
					 M364.24,149.98l105.35,22.48l-18.37-56.72L364.24,149.98z"/>
			</g>
			<g id="triangle36_438_">
				<path class="st2" d="M470.14,173.34c-0.12,0-0.23-0.06-0.3-0.16c-0.07-0.11-0.09-0.24-0.04-0.36l24.97-61.96
					c0.06-0.15,0.21-0.24,0.38-0.23c0.16,0.01,0.3,0.13,0.34,0.29l14.05,59.98c0.03,0.11,0,0.22-0.07,0.31
					c-0.07,0.09-0.17,0.14-0.28,0.15l-39.02,1.98C470.16,173.34,470.15,173.34,470.14,173.34z M495.01,112.25l-24.3,60.32
					l37.98-1.93L495.01,112.25z"/>
			</g>
			<g id="triangle36_437_">
				<path class="st2" d="M470.14,173.34c0,0-0.01,0-0.01,0c-0.16-0.01-0.29-0.11-0.34-0.26l-18.7-57.72
					c-0.04-0.11-0.02-0.23,0.04-0.32c0.06-0.09,0.16-0.16,0.28-0.17l43.66-4.24c0.13-0.02,0.26,0.04,0.34,0.15
					c0.08,0.11,0.1,0.24,0.05,0.37l-24.97,61.96C470.43,173.25,470.29,173.34,470.14,173.34z M451.94,115.58l18.23,56.29
					l24.35-60.43L451.94,115.58z"/>
			</g>
			<g id="triangle36_436_">
				<path class="st2" d="M341.1,246.65c-0.16,0-0.3-0.1-0.36-0.26c-0.06-0.17,0.02-0.36,0.17-0.44l129.04-73.31
					c0.14-0.08,0.31-0.06,0.43,0.04l61.62,51.49c0.12,0.1,0.16,0.25,0.12,0.39c-0.04,0.14-0.17,0.25-0.32,0.27l-190.67,21.82
					C341.13,246.65,341.11,246.65,341.1,246.65z M470.1,173.42L342.88,245.7l187.97-21.51L470.1,173.42z"/>
			</g>
			<g id="triangle36_435_">
				<path class="st2" d="M531.77,224.83c-0.09,0-0.17-0.03-0.24-0.09l-61.62-51.49c-0.12-0.1-0.16-0.26-0.12-0.41
					c0.05-0.15,0.18-0.25,0.34-0.26l39.02-1.98c0.15-0.02,0.3,0.08,0.36,0.23l22.57,53.38c0.05,0.06,0.09,0.15,0.09,0.24
					C532.16,224.67,532.02,224.85,531.77,224.83L531.77,224.83z M471.11,173.29l59.7,49.88l-21.9-51.8L471.11,173.29z"/>
			</g>
			<g id="triangle36_434_">
				<path class="st2" d="M555.37,225.66C555.37,225.66,555.37,225.66,555.37,225.66l-23.62-0.82c-0.14-0.01-0.28-0.09-0.33-0.23
					l-22.61-53.47c-0.07-0.17-0.01-0.37,0.15-0.46c0.16-0.1,0.36-0.06,0.48,0.08l46.21,54.3c0.1,0.11,0.12,0.27,0.05,0.41
					C555.65,225.58,555.52,225.66,555.37,225.66z M532.02,224.09l22.52,0.79l-44.08-51.79L532.02,224.09z"/>
			</g>
			<g id="triangle36_433_">
				<path class="st2" d="M340.33,159.7c-0.07,0-0.14-0.02-0.2-0.06c-0.15-0.1-0.21-0.29-0.14-0.46l18.75-45.46
					c0.06-0.13,0.18-0.22,0.33-0.23c0.15-0.01,0.28,0.07,0.35,0.2l8.59,15.75c0.08,0.14,0.05,0.31-0.05,0.43l-27.35,29.71
					C340.53,159.66,340.43,159.7,340.33,159.7z M359.13,114.74l-17.65,42.79l25.74-27.96L359.13,114.74z"/>
			</g>
			<g id="triangle36_432_">
				<path class="st2" d="M367.68,129.99c-0.02,0-0.04,0-0.06-0.01c-0.12-0.02-0.22-0.09-0.27-0.19l-8.59-15.75
					c-0.05-0.1-0.06-0.22-0.01-0.33c0.05-0.11,0.14-0.19,0.26-0.21l32.77-7.73c0.16-0.04,0.33,0.04,0.42,0.18
					c0.08,0.15,0.05,0.33-0.07,0.45l-24.18,23.48C367.87,129.95,367.77,129.99,367.68,129.99z M359.65,114.12l8.12,14.88
					l22.85-22.19L359.65,114.12z"/>
			</g>
			<g id="triangle36_431_">
				<path class="st2" d="M359.08,114.25c-0.14,0-0.28-0.08-0.34-0.22c-0.07-0.16-0.02-0.35,0.12-0.46l38.85-28.27
					c0.13-0.09,0.31-0.1,0.44,0c0.13,0.09,0.19,0.26,0.14,0.41l-6.08,20.54c-0.04,0.13-0.14,0.23-0.27,0.26l-32.77,7.74
					C359.14,114.24,359.11,114.25,359.08,114.25z M397.26,86.55l-36.45,26.53l30.75-7.26L397.26,86.55z"/>
			</g>
			<g id="triangle36_430_">
				<path class="st2" d="M451.44,115.62c-0.06,0-0.12-0.02-0.18-0.05l-53.51-29.65c-0.12-0.07-0.2-0.2-0.19-0.34
					c0-0.14,0.08-0.27,0.21-0.33l51.74-25.55c0.11-0.06,0.25-0.05,0.36,0.01c0.11,0.07,0.18,0.18,0.18,0.31l1.77,55.2
					c0,0.14-0.06,0.26-0.18,0.33C451.58,115.6,451.51,115.62,451.44,115.62z M398.74,85.62l52.31,28.98l-1.73-53.96L398.74,85.62z"
					/>
			</g>
			<g id="triangle36_429_">
				<path class="st2" d="M397.93,85.98c-0.08,0-0.16-0.03-0.23-0.08c-0.11-0.09-0.17-0.23-0.14-0.37l6.38-32.02
					c0.04-0.2,0.22-0.33,0.42-0.3l45.35,6.46c0.16,0.02,0.29,0.15,0.32,0.31c0.03,0.16-0.06,0.32-0.21,0.4L398.1,85.94
					C398.05,85.96,397.99,85.98,397.93,85.98z M404.62,54l-6.17,30.92l49.97-24.68L404.62,54z"/>
			</g>
			<g id="triangle36_428_">
				<path class="st2" d="M451.44,115.62c-0.09,0-0.18-0.03-0.25-0.09c-0.08-0.07-0.12-0.17-0.13-0.27l-1.77-55.2
					c0-0.16,0.09-0.3,0.24-0.36c0.15-0.06,0.31-0.02,0.42,0.1l45.44,50.96c0.09,0.11,0.12,0.25,0.07,0.39
					c-0.05,0.13-0.17,0.22-0.31,0.24l-43.66,4.24C451.47,115.62,451.46,115.62,451.44,115.62z M450.08,61.07l1.73,53.77l42.53-4.13
					L450.08,61.07z"/>
			</g>
			<g id="triangle36_427_">
				<path class="st2" d="M449.67,60.42c-0.02,0-0.04,0-0.05,0l-45.35-6.46c-0.19-0.03-0.33-0.2-0.32-0.39l0.39-8.79
					c0.01-0.12,0.06-0.23,0.16-0.29c0.1-0.07,0.22-0.08,0.33-0.05l44.92,15.24c0.18,0.03,0.32,0.18,0.32,0.37
					c0,0.21-0.17,0.38-0.38,0.38C449.69,60.42,449.68,60.42,449.67,60.42z M404.71,53.26l41.03,5.85l-40.67-13.79L404.71,53.26z"/>
			</g>
			<g id="triangle36_426_">
				<path class="st2" d="M449.67,60.42c-0.04,0-0.08-0.01-0.12-0.02l-44.96-15.25c-0.14-0.05-0.24-0.18-0.25-0.33
					c-0.01-0.15,0.07-0.29,0.21-0.36l34.51-16.59c0.1-0.05,0.21-0.05,0.31-0.01c0.1,0.04,0.18,0.12,0.21,0.23l10.42,31.73
					c0.04,0.06,0.07,0.14,0.07,0.22C450.07,60.26,449.9,60.42,449.67,60.42C449.68,60.42,449.68,60.42,449.67,60.42z M405.7,44.73
					l43.38,14.71l-10.09-30.72L405.7,44.73z"/>
			</g>
			<g id="triangle36_425_">
				<path class="st2" d="M495.11,111.38c-0.11,0-0.21-0.04-0.28-0.12l-45.44-50.96c-0.07-0.08-0.1-0.18-0.09-0.28
					c0.01-0.1,0.06-0.2,0.13-0.26l72.88-59.67c0.13-0.1,0.3-0.11,0.44-0.03c0.14,0.09,0.2,0.25,0.16,0.41L495.47,111.1
					c-0.03,0.13-0.14,0.24-0.27,0.27C495.17,111.38,495.14,111.38,495.11,111.38z M450.21,60.09l44.7,50.14l27-108.85L450.21,60.09z
					"/>
			</g>
			<g id="triangle36_424_">
				<path class="st2" d="M449.67,60.42c-0.04,0-0.07,0-0.11-0.02c-0.12-0.03-0.21-0.12-0.25-0.24l-10.46-31.84
					c-0.06-0.2,0.04-0.41,0.24-0.47l83.34-27.83c0.17-0.06,0.36,0.02,0.45,0.17c0.09,0.16,0.05,0.36-0.09,0.47l-72.88,59.67
					C449.84,60.39,449.76,60.42,449.67,60.42z M439.69,28.45l10.17,30.96l70.88-58.03L439.69,28.45z"/>
			</g>
			<g id="triangle36_423_">
				<path class="st2" d="M531.14,331.41c-0.05,0-0.1-0.01-0.15-0.03l-190.04-84.76c-0.15-0.07-0.24-0.23-0.22-0.4
					c0.03-0.17,0.16-0.3,0.33-0.32l190.67-21.82c0.11-0.01,0.21,0.02,0.29,0.09c0.08,0.07,0.12,0.17,0.12,0.28l-0.62,106.58
					c0,0.13-0.06,0.24-0.17,0.31C531.28,331.39,531.21,331.41,531.14,331.41z M342.5,246.5l188.27,83.96l0.62-105.58L342.5,246.5z"
					/>
			</g>
			<g id="triangle36_422_">
				<path class="st2" d="M341.1,246.65c-0.03,0-0.06,0-0.09-0.01l-11.54-2.79c-0.12-0.03-0.21-0.11-0.26-0.22l-16.79-40.28
					c-0.07-0.18,0-0.38,0.17-0.47c0.17-0.09,0.38-0.04,0.49,0.12l28.34,43.07c0.08,0.13,0.08,0.29-0.01,0.42
					C341.33,246.6,341.22,246.65,341.1,246.65z M329.83,243.18l10.44,2.52l-25.61-38.93L329.83,243.18z"/>
			</g>
			<g id="triangle36_421_">
				<path class="st2" d="M601.44,107.33c-0.12,0-0.23-0.06-0.3-0.15L522.25,0.6c-0.11-0.14-0.1-0.34,0.02-0.47
					c0.12-0.13,0.32-0.16,0.47-0.07l103.72,61.49c0.17,0.1,0.23,0.33,0.14,0.5l-24.83,45.09c-0.06,0.11-0.18,0.18-0.3,0.19
					C601.46,107.33,601.45,107.33,601.44,107.33z M523.96,1.64l77.44,104.62L625.77,62L523.96,1.64z"/>
			</g>
			<g id="triangle36_420_">
				<path class="st2" d="M495.11,111.38c-0.11,0-0.22-0.05-0.29-0.14c-0.07-0.09-0.1-0.21-0.07-0.33L522.19,0.28
					c0.04-0.14,0.15-0.25,0.29-0.28c0.14-0.03,0.29,0.03,0.38,0.14l78.89,106.59c0.08,0.11,0.1,0.26,0.04,0.38
					c-0.06,0.12-0.18,0.21-0.32,0.21l-106.33,4.05C495.12,111.38,495.11,111.38,495.11,111.38z M522.72,1.24l-27.13,109.38l105.12-4
					L522.72,1.24z"/>
			</g>
			<g id="triangle36_419_">
				<path class="st2" d="M541.73,346.38c-0.12,0-0.23-0.06-0.31-0.16l-10.59-14.97c-0.09-0.13-0.09-0.31,0-0.44
					c0.1-0.13,0.26-0.19,0.42-0.14l10.89,3.49c0.16,0.05,0.26,0.2,0.26,0.37l-0.3,11.48c-0.01,0.16-0.11,0.3-0.27,0.35
					C541.8,346.38,541.77,346.38,541.73,346.38z M532.1,331.73l9.29,13.14l0.27-10.07L532.1,331.73z"/>
			</g>
			<g id="triangle36_418_">
				<path class="st2" d="M542.03,334.9c-0.04,0-0.08-0.01-0.12-0.02l-10.89-3.49c-0.18-0.06-0.29-0.24-0.25-0.42l14.85-83.02
					c0.04-0.2,0.22-0.33,0.41-0.31c0.2,0.02,0.34,0.19,0.33,0.39l-3.96,86.52c-0.01,0.12-0.06,0.22-0.16,0.29
					C542.19,334.88,542.11,334.9,542.03,334.9z M531.57,330.78l10.11,3.24l3.68-80.33L531.57,330.78z"/>
			</g>
			<g id="triangle36_417_">
				<path class="st2" d="M531.14,331.41c-0.01,0-0.02,0-0.03,0c-0.2-0.02-0.34-0.18-0.34-0.38l0.62-106.58
					c0-0.17,0.11-0.31,0.28-0.36c0.16-0.04,0.33,0.02,0.42,0.17l14.23,23.55c0.05,0.08,0.06,0.17,0.05,0.26l-14.85,83.02
					C531.48,331.28,531.32,331.41,531.14,331.41z M532.13,225.79l-0.59,100.87l14.06-78.58L532.13,225.79z"/>
			</g>
			<g id="triangle36_416_">
				<path class="st2" d="M546,248.39c-0.13,0-0.25-0.07-0.32-0.18l-14.23-23.55c-0.07-0.12-0.07-0.26,0-0.38
					c0.07-0.12,0.2-0.18,0.34-0.19l23.61,0.82c0.12,0,0.23,0.07,0.3,0.17c0.07,0.1,0.08,0.23,0.03,0.35l-9.38,22.73
					c-0.05,0.13-0.18,0.22-0.32,0.23C546.02,248.39,546.01,248.39,546,248.39z M532.45,224.86l13.49,22.32l8.89-21.54L532.45,224.86
					z"/>
			</g>
			<g id="triangle36_415_">
				<path class="st2" d="M624.57,135.16c-0.11,0-0.22-0.05-0.29-0.13l-23.13-27.82c-0.07-0.08-0.1-0.19-0.08-0.3
					c0.02-0.11,0.08-0.2,0.17-0.26l54.17-33.77c0.14-0.09,0.33-0.07,0.45,0.04c0.12,0.11,0.16,0.3,0.08,0.45l-31.04,61.59
					c-0.06,0.11-0.17,0.19-0.29,0.2C624.6,135.16,624.58,135.16,624.57,135.16z M602,107.05l22.49,27.05l30.18-59.88L602,107.05z"/>
			</g>
			<g id="triangle36_414_">
				<path class="st2" d="M601.44,107.33c-0.09,0-0.19-0.04-0.26-0.1c-0.12-0.12-0.15-0.3-0.07-0.45l24.83-45.09
					c0.09-0.16,0.29-0.24,0.46-0.17l29.34,11.32c0.13,0.05,0.22,0.17,0.24,0.31c0.01,0.14-0.05,0.28-0.18,0.35l-54.17,33.77
					C601.58,107.32,601.51,107.33,601.44,107.33z M626.44,62.33l-23.98,43.55l52.31-32.61L626.44,62.33z"/>
			</g>
			<g id="triangle36_413_">
				<path class="st2" d="M570.97,144.62c-0.13,0-0.25-0.07-0.32-0.19c-0.08-0.13-0.07-0.3,0.03-0.43l30.47-37.29
					c0.07-0.09,0.18-0.14,0.29-0.14l0,0c0.11,0,0.22,0.05,0.29,0.13l23.13,27.82c0.09,0.1,0.11,0.24,0.06,0.37
					c-0.05,0.12-0.16,0.22-0.29,0.24l-53.6,9.46C571.01,144.62,570.99,144.62,570.97,144.62z M601.44,107.55L571.9,143.7l51.97-9.18
					L601.44,107.55z"/>
			</g>
			<g id="triangle36_412_">
				<path class="st2" d="M555.37,225.66c-0.11,0-0.21-0.05-0.29-0.13l-46.22-54.3c-0.08-0.09-0.11-0.21-0.08-0.33
					c0.03-0.12,0.11-0.21,0.21-0.26l61.81-26.74c0.13-0.05,0.28-0.04,0.38,0.05c0.11,0.09,0.16,0.23,0.13,0.36l-15.59,81.04
					c-0.03,0.14-0.13,0.25-0.27,0.29C555.44,225.65,555.41,225.66,555.37,225.66z M509.77,171.13l45.38,53.32l15.31-79.57
					L509.77,171.13z"/>
			</g>
			<g id="triangle36_411_">
				<path class="st2" d="M509.16,171.36c-0.06,0-0.12-0.01-0.17-0.04c-0.1-0.05-0.17-0.14-0.2-0.25l-14.05-59.97
					c-0.03-0.14,0.02-0.28,0.12-0.38c0.11-0.09,0.26-0.11,0.39-0.05l75.86,33.24c0.14,0.06,0.23,0.2,0.22,0.35
					c0,0.15-0.09,0.28-0.22,0.34l-61.81,26.74C509.26,171.35,509.21,171.36,509.16,171.36z M495.64,111.65l13.78,58.81l60.61-26.22
					L495.64,111.65z"/>
			</g>
			<g id="triangle36_410_">
				<path class="st2" d="M570.97,144.62c-0.05,0-0.1-0.01-0.15-0.03l-75.86-33.24c-0.16-0.07-0.25-0.24-0.22-0.41
					c0.03-0.17,0.18-0.3,0.36-0.3l106.33-4.05c0.16-0.01,0.29,0.08,0.35,0.21c0.07,0.13,0.05,0.29-0.04,0.4l-30.47,37.29
					C571.19,144.57,571.08,144.62,570.97,144.62z M496.76,111.32l74.1,32.47l29.77-36.42L496.76,111.32z"/>
			</g>
		</g>
		<g style="clip-path:url(#SVGID_00000116943251424671398240000010836904120427729832_);">
			<g id="triangle36_409_" class="st3">
				<path class="st2" d="M218.76,525.95c-0.11,0-0.21-0.04-0.28-0.12l-22-24.79c-0.1-0.11-0.12-0.26-0.07-0.39
					c0.05-0.13,0.17-0.22,0.31-0.24l26.63-2.49c0.12-0.01,0.23,0.03,0.31,0.12c0.08,0.08,0.11,0.2,0.09,0.32l-4.63,27.28
					c-0.03,0.14-0.13,0.26-0.27,0.3C218.83,525.95,218.79,525.95,218.76,525.95z M197.53,501.09l20.99,23.65l4.42-26.02
					L197.53,501.09z"/>
			</g>
			<g id="triangle36_408_" class="st3">
				<path class="st2" d="M218.76,525.95c-0.05,0-0.1-0.01-0.15-0.03l-50.33-21.64c-0.16-0.07-0.25-0.23-0.22-0.4
					c0.03-0.17,0.16-0.3,0.33-0.32l28.34-3.14c0.12-0.01,0.24,0.03,0.32,0.12l22,24.79c0.12,0.13,0.13,0.33,0.02,0.47
					C218.99,525.9,218.88,525.95,218.76,525.95z M169.88,504.15l47.48,20.42l-20.75-23.39L169.88,504.15z"/>
			</g>
			<g id="triangle36_407_" class="st3">
				<path class="st2" d="M168.43,504.31c-0.06,0-0.12-0.01-0.17-0.04l-40.93-20.39c-0.17-0.09-0.25-0.29-0.19-0.46
					c0.07-0.18,0.25-0.28,0.44-0.23l69.27,17.24c0.18,0.04,0.29,0.21,0.28,0.39c-0.01,0.18-0.15,0.33-0.33,0.35l-28.34,3.15
					C168.45,504.31,168.44,504.31,168.43,504.31z M130.73,484.73l37.77,18.81l26.15-2.9L130.73,484.73z"/>
			</g>
			<g id="triangle36_406_" class="st3">
				<path class="st2" d="M196.76,501.16c-0.03,0-0.06,0-0.09-0.01l-69.27-17.24c-0.14-0.04-0.25-0.15-0.28-0.29l-15.14-80.38
					c-0.03-0.17,0.05-0.33,0.21-0.41c0.15-0.07,0.33-0.04,0.45,0.09l84.4,97.62c0.11,0.12,0.12,0.3,0.04,0.44
					C197.01,501.1,196.89,501.16,196.76,501.16z M127.82,483.24l67.89,16.9l-82.72-95.67L127.82,483.24z"/>
			</g>
			<g id="triangle36_405_" class="st3">
				<path class="st2" d="M98.47,485.37c-0.11,0-0.21-0.05-0.28-0.13c-0.07-0.08-0.11-0.2-0.09-0.31l13.89-81.83
					c0.03-0.18,0.18-0.31,0.37-0.31c0.16,0.01,0.34,0.13,0.37,0.31l15.14,80.38c0.02,0.11-0.01,0.21-0.07,0.3
					c-0.07,0.09-0.17,0.14-0.28,0.14l-29.03,1.46C98.48,485.37,98.48,485.37,98.47,485.37z M112.38,405.29L98.92,484.6l28.13-1.41
					L112.38,405.29z"/>
			</g>
			<g id="triangle36_404_" class="st3">
				<path class="st2" d="M287.34,541.5c-0.03,0-0.05,0-0.08-0.01l-68.57-15.55c-0.2-0.04-0.32-0.23-0.29-0.43l4.63-27.28
					c0.02-0.12,0.1-0.23,0.22-0.28s0.25-0.04,0.36,0.03l63.88,42.79c0.14,0.05,0.24,0.19,0.24,0.35c0,0.21-0.17,0.38-0.38,0.38
					C287.35,541.5,287.34,541.5,287.34,541.5z M219.19,525.29l66.26,15.02l-61.79-41.38L219.19,525.29z"/>
			</g>
			<g id="triangle36_403_" class="st3">
				<path class="st2" d="M287.34,541.5c-0.07,0-0.14-0.02-0.21-0.06l-63.95-42.83c-0.13-0.09-0.19-0.25-0.16-0.4
					c0.04-0.15,0.16-0.27,0.32-0.28l106.33-12.81c0.16-0.02,0.3,0.06,0.37,0.19c0.07,0.13,0.06,0.29-0.03,0.41l-42.38,55.64
					C287.56,541.45,287.45,541.5,287.34,541.5z M224.44,498.55l62.81,42.07l41.63-54.65L224.44,498.55z"/>
			</g>
			<g id="triangle36_402_" class="st3">
				<path class="st2" d="M223.39,498.67c-0.16,0-0.31-0.11-0.36-0.26l-45.55-145.03c-0.05-0.16,0.01-0.33,0.15-0.43
					c0.14-0.09,0.33-0.08,0.45,0.03L329.97,485.2c0.11,0.1,0.16,0.25,0.11,0.39c-0.04,0.14-0.17,0.24-0.31,0.26l-106.33,12.81
					C223.42,498.67,223.41,498.67,223.39,498.67z M178.6,354.43l45.06,143.46l105.18-12.68L178.6,354.43z"/>
			</g>
			<g id="triangle36_401_" class="st3">
				<path class="st2" d="M196.76,501.16c-0.19,0-0.35-0.14-0.37-0.33l-18.93-147.51c-0.02-0.19,0.1-0.37,0.29-0.41
					c0.19-0.04,0.38,0.07,0.44,0.25l45.55,145.03c0.04,0.11,0.02,0.22-0.04,0.32c-0.06,0.1-0.16,0.16-0.28,0.17l-26.63,2.49
					C196.79,501.16,196.78,501.16,196.76,501.16z M178.75,357.43l18.34,142.95l25.8-2.41L178.75,357.43z"/>
			</g>
			<g id="triangle36_400_" class="st3">
				<path class="st2" d="M196.76,501.16c-0.11,0-0.21-0.04-0.28-0.13l-84.4-97.62c-0.07-0.08-0.1-0.18-0.09-0.28
					c0.01-0.1,0.06-0.2,0.15-0.26l65.48-49.89c0.11-0.08,0.25-0.1,0.37-0.05c0.12,0.05,0.21,0.17,0.23,0.3l18.91,147.4
					c0.02,0.05,0.04,0.1,0.04,0.16C197.16,501,196.99,501.17,196.76,501.16C196.77,501.16,196.77,501.16,196.76,501.16z
					 M112.9,403.22l83.33,96.38l-18.69-145.63L112.9,403.22z"/>
			</g>
			<g id="triangle36_399_" class="st3">
				<path class="st2" d="M177.84,353.65c-0.01,0-0.01,0-0.02,0l-90.54-4.09c-0.16-0.01-0.3-0.12-0.35-0.28
					c-0.04-0.16,0.02-0.32,0.16-0.41l70.46-44.96c0.09-0.06,0.21-0.07,0.32-0.04c0.11,0.03,0.19,0.11,0.23,0.21l20.09,49.05
					c0.05,0.12,0.03,0.25-0.04,0.36C178.08,353.59,177.96,353.65,177.84,353.65z M88.5,348.86l88.77,4.01l-19.7-48.1L88.5,348.86z"
					/>
			</g>
			<g id="triangle36_398_" class="st3">
				<path class="st2" d="M112.36,403.54c-0.03,0-0.06,0-0.09-0.01c-0.11-0.03-0.2-0.1-0.25-0.21l-25.06-53.98
					c-0.05-0.12-0.04-0.26,0.03-0.37c0.07-0.11,0.19-0.18,0.33-0.16l90.54,4.09c0.16,0.01,0.29,0.11,0.34,0.26
					c0.05,0.15-0.01,0.31-0.13,0.41l-65.48,49.89C112.52,403.52,112.44,403.54,112.36,403.54z M87.9,349.58l24.61,53l64.29-48.98
					L87.9,349.58z"/>
			</g>
			<g id="triangle36_397_" class="st3">
				<path class="st2" d="M329.74,485.86c-0.01,0-0.01,0-0.02,0c-0.09,0-0.18-0.03-0.25-0.09L177.59,353.56
					c-0.12-0.1-0.16-0.27-0.11-0.41l38.2-102.04c0.05-0.14,0.18-0.24,0.33-0.24c0.15-0.01,0.29,0.08,0.35,0.21l113.64,234.16
					c0.06,0.07,0.1,0.16,0.1,0.26C330.12,485.69,329.95,485.86,329.74,485.86z M178.28,353.16L328.58,484l-112.5-231.81
					L178.28,353.16z"/>
			</g>
			<g id="triangle36_396_" class="st3">
				<path class="st2" d="M177.84,353.65c-0.15,0-0.29-0.09-0.35-0.23l-20.09-49.05c-0.06-0.14-0.02-0.31,0.09-0.42l58.29-52.99
					c0.13-0.12,0.32-0.13,0.46-0.03c0.14,0.1,0.2,0.28,0.14,0.44l-38.2,102.04C178.14,353.55,178,353.65,177.84,353.65
					L177.84,353.65z M158.2,304.32l19.63,47.93l37.32-99.69L158.2,304.32z"/>
			</g>
			<g id="triangle36_395_" class="st3">
				<path class="st2" d="M157.75,304.6c-0.08,0-0.17-0.03-0.24-0.08c-0.14-0.12-0.18-0.32-0.09-0.48l48.72-83.58
					c0.07-0.13,0.21-0.2,0.37-0.18c0.15,0.02,0.27,0.12,0.32,0.26l9.56,30.59c0.04,0.14,0,0.29-0.11,0.39L158,304.5
					C157.93,304.56,157.84,304.6,157.75,304.6z M206.37,221.56L159.3,302.3l56.3-51.19L206.37,221.56z"/>
			</g>
			<g id="triangle36_394_" class="st3">
				<path class="st2" d="M218.76,525.95c-0.01,0-0.01,0-0.02,0l-66.62-3.56c-0.14-0.01-0.27-0.1-0.33-0.23
					c-0.06-0.13-0.03-0.29,0.07-0.39l16.29-18.08c0.11-0.12,0.28-0.16,0.43-0.09l50.33,21.64c0.17,0.07,0.26,0.25,0.22,0.43
					C219.09,525.83,218.93,525.95,218.76,525.95z M152.94,521.68l63.74,3.41l-48.15-20.71L152.94,521.68z"/>
			</g>
			<g id="triangle36_393_" class="st3">
				<path class="st2" d="M152.14,522.39c-0.01,0-0.02,0-0.03,0c-0.12-0.01-0.22-0.07-0.29-0.17l-24.64-38.47
					c-0.09-0.14-0.07-0.33,0.04-0.45c0.11-0.12,0.29-0.16,0.45-0.09l40.93,20.39c0.11,0.05,0.18,0.15,0.2,0.27
					c0.02,0.12-0.01,0.23-0.09,0.32l-16.29,18.08C152.34,522.34,152.24,522.39,152.14,522.39z M128.54,484.48l23.64,36.91
					l15.63-17.35L128.54,484.48z"/>
			</g>
			<g id="triangle36_392_" class="st3">
				<path class="st2" d="M152.14,522.39c-0.07,0-0.15-0.02-0.21-0.07l-53.66-37.01c-0.13-0.09-0.19-0.26-0.15-0.41
					c0.04-0.15,0.18-0.26,0.34-0.27l29.03-1.46c0.12-0.01,0.26,0.06,0.33,0.17l24.64,38.47c0.1,0.15,0.07,0.35-0.05,0.47
					C152.33,522.35,152.23,522.39,152.14,522.39z M99.6,485.32l51.22,35.33l-23.52-36.72L99.6,485.32z"/>
			</g>
			<g id="triangle36_391_" class="st3">
				<path class="st2" d="M98.47,485.37c-0.1,0-0.19-0.04-0.26-0.11l-55.98-54.74c-0.09-0.09-0.13-0.22-0.11-0.34
					c0.03-0.12,0.11-0.23,0.23-0.27l69.87-27.1c0.12-0.05,0.27-0.03,0.37,0.06c0.1,0.08,0.15,0.22,0.13,0.35l-13.89,81.83
					c-0.02,0.14-0.12,0.25-0.25,0.29C98.55,485.37,98.51,485.37,98.47,485.37z M43.17,430.4l55.05,53.83l13.66-80.47L43.17,430.4z"
					/>
			</g>
			<g id="triangle36_390_" class="st3">
				<path class="st2" d="M54.61,491.6c-0.18,0-0.33-0.12-0.37-0.3l-12.12-60.96c-0.03-0.16,0.04-0.32,0.19-0.4
					c0.14-0.08,0.32-0.05,0.44,0.06l55.98,54.74c0.1,0.1,0.14,0.25,0.09,0.38c-0.04,0.14-0.16,0.23-0.3,0.26l-43.86,6.23
					C54.65,491.6,54.63,491.6,54.61,491.6z M43.09,431.38l11.82,59.43l42.75-6.07L43.09,431.38z"/>
			</g>
			<g id="triangle36_389_" class="st3">
				<path class="st2" d="M42.49,430.64c-0.11,0-0.21-0.04-0.28-0.13c-0.11-0.12-0.12-0.29-0.05-0.43L86.97,349
					c0.07-0.12,0.2-0.19,0.34-0.2c0.14,0.01,0.27,0.09,0.33,0.22l25.06,53.98c0.04,0.09,0.05,0.2,0.01,0.3
					c-0.04,0.1-0.12,0.17-0.21,0.21l-69.87,27.1C42.58,430.63,42.53,430.64,42.49,430.64z M87.26,350.01l-43.95,79.53l68.53-26.58
					L87.26,350.01z"/>
			</g>
			<g id="triangle36_388_" class="st3">
				<path class="st2" d="M43.19,495.05c-0.08,0-0.16-0.02-0.22-0.07c-0.09-0.07-0.15-0.18-0.15-0.3l-0.7-64.41
					c0-0.19,0.14-0.36,0.34-0.38c0.18-0.03,0.37,0.11,0.41,0.3l12.12,60.96c0.04,0.19-0.07,0.38-0.26,0.43l-11.42,3.45
					C43.26,495.05,43.23,495.05,43.19,495.05z M42.91,434.29l0.65,59.88l10.62-3.21L42.91,434.29z"/>
			</g>
			<g id="triangle36_387_" class="st3">
				<path class="st2" d="M43.19,495.05c-0.1,0-0.19-0.04-0.27-0.11L6.17,458.23c-0.08-0.08-0.12-0.18-0.11-0.29
					c0.01-0.11,0.06-0.21,0.14-0.27l36.05-27.71c0.11-0.08,0.27-0.1,0.39-0.04c0.13,0.06,0.21,0.19,0.21,0.33l0.7,64.29
					c0.01,0.04,0.02,0.08,0.02,0.12C43.58,494.89,43.43,495.06,43.19,495.05C43.19,495.05,43.19,495.05,43.19,495.05z M7.01,458
					l35.8,35.76l-0.68-62.74L7.01,458z"/>
			</g>
			<g id="triangle36_386_" class="st3">
				<path class="st2" d="M42.49,430.64c-0.07,0-0.13-0.02-0.2-0.05l-109.16-66.46c-0.14-0.08-0.21-0.25-0.17-0.4
					c0.04-0.16,0.17-0.27,0.33-0.29l153.97-14.63c0.14-0.02,0.27,0.05,0.35,0.17c0.08,0.12,0.08,0.27,0.01,0.39l-44.8,81.08
					c-0.05,0.09-0.13,0.16-0.23,0.18C42.55,430.63,42.52,430.64,42.49,430.64z M-65.52,364.08l107.87,65.66l44.27-80.12
					L-65.52,364.08z"/>
			</g>
			<g id="triangle36_385_" class="st3">
				<path class="st2" d="M6.44,458.34c-0.11,0-0.22-0.05-0.3-0.14l-73.11-94.16c-0.11-0.14-0.1-0.34,0.02-0.48
					c0.12-0.14,0.32-0.16,0.47-0.07l109.16,66.46c0.11,0.06,0.17,0.18,0.18,0.3c0.01,0.12-0.05,0.24-0.15,0.32l-36.05,27.7
					C6.6,458.32,6.52,458.34,6.44,458.34z M-65.13,365.19l71.63,92.25l35.32-27.14L-65.13,365.19z"/>
			</g>
			<g id="triangle36_384_" class="st3">
				<path class="st2" d="M329.72,485.86c-0.14,0-0.27-0.08-0.34-0.21L215.7,251.4c-0.05-0.1-0.05-0.21-0.01-0.31
					c0.04-0.1,0.12-0.18,0.22-0.21l136.71-47.13c0.12-0.04,0.25-0.02,0.35,0.06c0.1,0.08,0.15,0.2,0.14,0.33l-23.03,281.39
					c-0.01,0.17-0.14,0.31-0.3,0.34C329.77,485.86,329.74,485.86,329.72,485.86z M216.56,251.45l112.9,232.64l22.87-279.45
					L216.56,251.45z"/>
			</g>
			<g id="triangle36_383_" class="st3">
				<path class="st2" d="M287.34,541.5c-0.09,0-0.18-0.03-0.25-0.1c-0.14-0.13-0.16-0.35-0.04-0.5l42.38-55.64
					c0.09-0.12,0.25-0.18,0.4-0.13c0.15,0.04,0.26,0.17,0.27,0.32l1.63,16.03c0.01,0.12-0.03,0.24-0.12,0.32l-44.01,39.61
					C287.52,541.47,287.43,541.5,287.34,541.5z M329.44,486.47l-39.39,51.71l40.9-36.81L329.44,486.47z"/>
			</g>
			<g id="triangle36_382_" class="st3">
				<path class="st2" d="M-66.67,364.18c-0.05,0-0.1-0.01-0.14-0.03c-0.17-0.07-0.26-0.24-0.22-0.42l32.07-160.43
					c0.04-0.2,0.23-0.33,0.43-0.3l68.89,11.51c0.12,0.02,0.23,0.11,0.28,0.22c0.05,0.12,0.04,0.25-0.03,0.36L-66.36,364.02
					C-66.44,364.12-66.55,364.18-66.67,364.18z M-34.31,203.81l-31.63,158.25l99.59-146.9L-34.31,203.81z"/>
			</g>
			<g id="triangle36_381_" class="st3">
				<path class="st2" d="M-66.67,364.18c-0.13,0-0.26-0.07-0.32-0.18c-0.07-0.12-0.07-0.28,0.01-0.4L33.98,214.68
					c0.08-0.12,0.21-0.18,0.35-0.16c0.14,0.01,0.26,0.11,0.31,0.23l53.01,134.29c0.04,0.11,0.03,0.23-0.03,0.33
					c-0.06,0.1-0.17,0.17-0.28,0.18l-153.97,14.63C-66.65,364.18-66.66,364.18-66.67,364.18z M34.2,215.69L-65.92,363.36
					l152.68-14.51L34.2,215.69z"/>
			</g>
			<g id="triangle36_380_" class="st3">
				<path class="st2" d="M352.75,204.47c-0.04,0-0.07-0.01-0.11-0.02c-0.15-0.05-0.26-0.19-0.27-0.35l-0.43-15.52
					c0-0.17,0.1-0.32,0.26-0.37l14.83-4.77c0.15-0.05,0.32,0,0.42,0.14c0.1,0.13,0.1,0.31,0,0.44l-14.41,20.29
					C352.98,204.41,352.87,204.47,352.75,204.47z M352.7,188.85l0.39,14.11l13.1-18.45L352.7,188.85z"/>
			</g>
			<g id="triangle36_379_" class="st3">
				<path class="st2" d="M239.78,222.8c-0.17,0-0.32-0.12-0.36-0.29c-0.04-0.19,0.07-0.38,0.26-0.44l112.53-33.84
					c0.11-0.04,0.23-0.01,0.33,0.05c0.1,0.07,0.15,0.18,0.16,0.29l0.43,15.51c0,0.19-0.13,0.35-0.32,0.38l-112.96,18.33
					C239.83,222.8,239.81,222.8,239.78,222.8z M351.96,189.08l-106.6,32.06l107-17.36L351.96,189.08z"/>
			</g>
			<g id="triangle36_378_" class="st3">
				<path class="st2" d="M216.04,251.61c-0.12,0-0.24-0.06-0.31-0.16c-0.1-0.14-0.09-0.32,0.02-0.45l23.75-28.81
					c0.06-0.07,0.14-0.12,0.23-0.13l112.96-18.33c0.19-0.03,0.38,0.09,0.42,0.28c0.05,0.19-0.06,0.38-0.24,0.45l-136.71,47.13
					C216.12,251.6,216.08,251.61,216.04,251.61z M239.99,222.77l-22.81,27.67l131.32-45.28L239.99,222.77z"/>
			</g>
			<g id="triangle36_377_" class="st3">
				<path class="st2" d="M216.04,251.61c-0.03,0-0.05,0-0.07-0.01c-0.13-0.03-0.25-0.12-0.29-0.26l-9.56-30.59
					c-0.04-0.12-0.01-0.25,0.06-0.34c0.07-0.1,0.19-0.15,0.32-0.14l33.31,1.78c0.14,0.01,0.27,0.09,0.32,0.22
					c0.06,0.13,0.04,0.28-0.05,0.39l-23.75,28.81C216.25,251.56,216.15,251.61,216.04,251.61z M206.99,221.04l9.2,29.42l22.84-27.7
					L206.99,221.04z"/>
			</g>
			<g id="triangle36_376_" class="st3">
				<path class="st2" d="M34.29,215.26c-0.08,0-0.17-0.03-0.23-0.08l-67.59-54.15c-0.13-0.11-0.18-0.29-0.11-0.44
					c0.06-0.15,0.23-0.25,0.39-0.23l92.8,12.03c0.12,0.02,0.23,0.09,0.29,0.21c0.05,0.11,0.05,0.25-0.02,0.36l-25.21,42.12
					c-0.06,0.09-0.15,0.16-0.26,0.18C34.33,215.26,34.31,215.26,34.29,215.26z M-32.02,161.28l66.21,53.05l24.7-41.26L-32.02,161.28
					z"/>
			</g>
			<g id="triangle36_375_" class="st3">
				<path class="st2" d="M34.29,215.26c-0.02,0-0.04,0-0.06,0l-68.89-11.51c-0.18-0.03-0.32-0.19-0.31-0.38l1.3-42.65
					c0.01-0.14,0.09-0.27,0.22-0.33c0.13-0.06,0.28-0.04,0.39,0.05l67.53,54.1c0.13,0.06,0.22,0.19,0.22,0.34
					C34.68,215.1,34.52,215.27,34.29,215.26C34.29,215.26,34.29,215.26,34.29,215.26z M-34.22,203.07l67.15,11.21l-65.88-52.78
					L-34.22,203.07z"/>
			</g>
			<g id="triangle36_374_" class="st3">
				<path class="st2" d="M95.72,237.5c-0.04,0-0.09-0.01-0.13-0.02l-61.44-22.24c-0.11-0.04-0.19-0.12-0.23-0.23
					c-0.04-0.11-0.03-0.22,0.03-0.32l25.21-42.12c0.07-0.11,0.21-0.19,0.33-0.18c0.13,0,0.26,0.08,0.32,0.19l36.22,64.36
					c0.08,0.14,0.06,0.31-0.04,0.43C95.94,237.46,95.83,237.5,95.72,237.5z M34.84,214.69l60.06,21.74l-35.41-62.91L34.84,214.69z"
					/>
			</g>
			<g id="triangle36_373_" class="st3">
				<path class="st2" d="M157.75,304.6c-0.11,0-0.21-0.04-0.28-0.12l-62.03-67.09c-0.09-0.1-0.12-0.25-0.08-0.38
					c0.05-0.13,0.16-0.23,0.3-0.25l110.75-16.49c0.15-0.02,0.29,0.04,0.37,0.16c0.08,0.12,0.09,0.28,0.01,0.4l-48.72,83.58
					c-0.06,0.1-0.16,0.17-0.28,0.18C157.78,304.59,157.77,304.6,157.75,304.6z M96.48,237.39l61.2,66.2l48.07-82.47L96.48,237.39z"
					/>
			</g>
			<g id="triangle36_372_" class="st3">
				<path class="st2" d="M87.29,349.56c-0.07,0-0.13-0.02-0.19-0.05c-0.12-0.07-0.19-0.21-0.18-0.35l8.43-112.06
					c0.01-0.15,0.11-0.28,0.25-0.33c0.14-0.05,0.3-0.01,0.4,0.1l62.03,67.09c0.07,0.08,0.11,0.19,0.1,0.3
					c-0.01,0.11-0.08,0.21-0.17,0.27L87.5,349.5C87.43,349.54,87.36,349.56,87.29,349.56z M96.03,238.01l-8.31,110.45l69.45-44.32
					L96.03,238.01z"/>
			</g>
			<g id="triangle36_371_" class="st3">
				<path class="st2" d="M87.29,349.56c-0.15,0-0.29-0.09-0.35-0.24L33.94,215.03c-0.05-0.14-0.02-0.29,0.08-0.4
					c0.1-0.11,0.26-0.14,0.4-0.09l61.44,22.24c0.16,0.06,0.26,0.21,0.25,0.38l-8.43,112.06c-0.01,0.17-0.14,0.32-0.32,0.34
					C87.33,349.56,87.31,349.56,87.29,349.56z M34.94,215.53l52.1,132l8.28-110.14L34.94,215.53z"/>
			</g>
		</g>
	</g>
</g>
</svg>
