<?xml version="1.0" encoding="UTF-8"?>
<svg id="Camada_1" xmlns="http://www.w3.org/2000/svg" version="1.1" xmlns:xlink="http://www.w3.org/1999/xlink" viewBox="0 0 259.09 259.09">
  <!-- Generator: Adobe Illustrator 30.0.0, SVG Export Plug-In . SVG Version: 2.1.1 Build 123)  -->
  <defs>
    <style>
      .st0 {
        fill: url(#linear-gradient2);
      }

      .st1 {
        fill: #e0062e;
      }

      .st2 {
        fill: #e2dddc;
      }

      .st3 {
        fill: url(#linear-gradient1);
      }

      .st4 {
        fill: #df1f43;
      }

      .st5 {
        fill: url(#linear-gradient7);
      }

      .st6 {
        fill: url(#linear-gradient4);
      }

      .st7 {
        fill: #ea7375;
      }

      .st8 {
        fill: #4d1413;
      }

      .st9 {
        fill: url(#linear-gradient5);
      }

      .st10 {
        fill: url(#linear-gradient3);
      }

      .st11 {
        fill: #e62638;
      }

      .st12 {
        fill: url(#linear-gradient6);
      }

      .st13 {
        fill: #f8f7f6;
      }

      .st14 {
        fill: url(#linear-gradient);
      }

      .st15 {
        fill: #f7f4f5;
      }
    </style>
    <linearGradient id="linear-gradient" x1="-241.03" y1="355.76" x2="-239.28" y2="355.76" gradientTransform="translate(7552.35 -38133.48) rotate(-135) scale(90.8 -90.8)" gradientUnits="userSpaceOnUse">
      <stop offset="0" stop-color="#e76c74"/>
      <stop offset=".36" stop-color="#d6505e"/>
      <stop offset="1" stop-color="#b51732"/>
    </linearGradient>
    <linearGradient id="linear-gradient1" x1="-260.76" y1="333.17" x2="-259.02" y2="333.17" gradientTransform="translate(1365.72 1119.66) rotate(-16.5) scale(3.91 -3.91)" gradientUnits="userSpaceOnUse">
      <stop offset="0" stop-color="#8c8d8f"/>
      <stop offset=".09" stop-color="#9a9b9d"/>
      <stop offset=".37" stop-color="#c5c6c7"/>
      <stop offset=".63" stop-color="#e5e5e5"/>
      <stop offset=".85" stop-color="#f8f8f8"/>
      <stop offset="1" stop-color="#fff"/>
    </linearGradient>
    <linearGradient id="linear-gradient2" x1="-254.36" y1="363.81" x2="-252.62" y2="363.81" gradientTransform="translate(806.02 -3124.48) rotate(-135) scale(7.63 -7.63)" xlink:href="#linear-gradient1"/>
    <linearGradient id="linear-gradient3" x1="-274.18" y1="348.39" x2="-272.44" y2="348.39" gradientTransform="translate(1771.81 -282.2) rotate(-68.89) scale(3.97 -3.97)" xlink:href="#linear-gradient1"/>
    <linearGradient id="linear-gradient4" x1="-243.19" y1="367.22" x2="-241.45" y2="367.22" gradientTransform="translate(-1975.14 -2004.51) rotate(167) scale(6.94 -6.94)" xlink:href="#linear-gradient1"/>
    <linearGradient id="linear-gradient5" x1="-234.7" y1="358.96" x2="-232.96" y2="358.96" gradientTransform="translate(-2735.59 570.66) rotate(112.44) scale(6.9 -6.9)" xlink:href="#linear-gradient1"/>
    <linearGradient id="linear-gradient6" x1="-239.37" y1="346.49" x2="-237.63" y2="346.49" gradientTransform="translate(-467.02 3577.32) rotate(42.81) scale(8.47 -8.47)" xlink:href="#linear-gradient1"/>
    <linearGradient id="linear-gradient7" x1="-239.64" y1="354.15" x2="-237.9" y2="354.15" gradientTransform="translate(-6562.03 34517.45) rotate(45) scale(82.02 -82.02)" xlink:href="#linear-gradient"/>
  </defs>
  <circle class="st8" cx="129.2" cy="129.71" r="117.09"/>
  <path class="st11" d="M238.94,115.95l-21.09,2.64h0c-.31-2.46-.71-4.9-1.21-7.3-1.22-5.81-3-11.41-5.28-16.74-.42-.99-.88-1.96-1.34-2.94h0s19.22-9.05,19.22-9.05c-2.34-4.96-5.03-9.73-8.05-14.26-4.05-6.04-8.66-11.67-13.79-16.8-5.4-5.4-11.37-10.25-17.79-14.44-1.55-1.01-3.12-1.99-4.73-2.92l-10.7,18.36h0c-3.75-2.19-7.68-4.12-11.75-5.75-4.63-1.86-9.47-3.32-14.44-4.38l4.47-20.79c-.54-.12-1.08-.24-1.63-.34-6.99-1.39-14.22-2.12-21.63-2.12-7.82,0-15.44.82-22.8,2.36-7.19,1.51-14.12,3.71-20.73,6.54-6.28,2.69-12.27,5.95-17.89,9.71-2.65,1.77-5.2,3.67-7.67,5.65l13.27,16.59c-2.57,2.06-5.04,4.24-7.37,6.57-4.37,4.37-8.28,9.18-11.67,14.37l.12-.18-17.77-11.65-.15.22c-3.95,6.04-7.32,12.49-10.04,19.27-2.5,6.24-4.45,12.77-5.79,19.51-1.39,6.99-2.12,14.23-2.12,21.63,0,4.66.3,9.25.86,13.76l21.09-2.64v-.02c.3,2.47.71,4.92,1.21,7.32,1.22,5.81,3,11.41,5.28,16.74.42.99.88,1.96,1.34,2.93l-19.22,9.06c2.34,4.96,5.03,9.73,8.05,14.26,4.04,6.05,8.66,11.67,13.79,16.8,5.4,5.4,11.37,10.24,17.79,14.44,1.55,1.01,3.13,1.99,4.73,2.92l10.7-18.36h0c3.75,2.19,7.68,4.12,11.75,5.75,5.04,2.02,10.31,3.6,15.76,4.68-.44-.09-.88-.2-1.32-.29l-4.47,20.79c.54.12,1.09.24,1.63.34,7,1.39,14.22,2.12,21.63,2.12,7.82,0,15.44-.81,22.8-2.36,7.19-1.51,14.13-3.71,20.73-6.54,6.28-2.69,12.27-5.95,17.89-9.71,2.65-1.77,5.2-3.67,7.67-5.65l-13.27-16.59c2.57-2.06,5.04-4.24,7.37-6.57,4.32-4.32,8.18-9.07,11.54-14.2l17.78,11.65.15-.22c3.95-6.04,7.32-12.49,10.04-19.27,2.5-6.24,4.45-12.77,5.79-19.51,1.39-6.99,2.12-14.23,2.12-21.63,0-4.66-.3-9.25-.86-13.76ZM208.81,89.17c-.16-.31-.31-.61-.47-.92.16.3.31.61.47.92ZM205.47,83.18c-.64-1.04-1.29-2.07-1.96-3.08.68,1.01,1.33,2.04,1.96,3.08ZM207.24,86.22c-.29-.51-.58-1.02-.88-1.53.3.51.59,1.02.88,1.53ZM79.59,55.39c-1.08.72-2.14,1.48-3.18,2.24,1.04-.77,2.1-1.52,3.18-2.24ZM40.22,137.84l.04.41-.04-.41ZM39.89,132.35c0,.22.02.44.03.66,0-.22-.02-.44-.03-.66ZM40.01,135.05c.01.21.03.41.04.62-.01-.21-.03-.41-.04-.62ZM49.58,170.25c.16.31.31.61.47.92-.16-.31-.32-.61-.47-.92ZM52.92,176.23c.64,1.04,1.29,2.07,1.96,3.09-.68-1.01-1.33-2.04-1.96-3.09ZM51.15,173.2c.29.52.59,1.03.88,1.54-.3-.51-.6-1.02-.88-1.54ZM178.81,204.03c1.08-.72,2.14-1.48,3.19-2.25-1.04.77-2.1,1.52-3.19,2.25ZM194.23,172.11c-2.95,4.51-6.34,8.7-10.13,12.5-3.6,3.6-7.55,6.84-11.79,9.68-3.94,2.64-8.14,4.93-12.55,6.82-4.63,1.99-9.5,3.54-14.55,4.61-5.17,1.09-10.52,1.67-16.01,1.67-5.2,0-10.27-.52-15.19-1.5-4.73-.94-9.31-2.33-13.69-4.09-4.76-1.91-9.28-4.28-13.53-7.06-4.51-2.95-8.7-6.34-12.5-10.13-3.6-3.6-6.84-7.55-9.68-11.79-2.64-3.95-4.93-8.14-6.82-12.55-1.99-4.64-3.54-9.5-4.61-14.55-1.09-5.17-1.67-10.52-1.67-16.01,0-5.2.52-10.27,1.5-15.19.94-4.73,2.33-9.31,4.09-13.69,1.91-4.76,4.28-9.28,7.06-13.52,2.95-4.51,6.34-8.7,10.13-12.5,3.6-3.6,7.55-6.84,11.79-9.68,3.94-2.64,8.14-4.93,12.55-6.82,4.64-1.99,9.5-3.54,14.55-4.61,5.17-1.09,10.52-1.67,16.01-1.67,5.2,0,10.27.52,15.19,1.5,4.73.94,9.31,2.33,13.69,4.09,4.76,1.91,9.29,4.28,13.53,7.06,4.51,2.95,8.7,6.34,12.5,10.13,3.6,3.6,6.84,7.55,9.68,11.79,2.65,3.94,4.93,8.14,6.83,12.55,1.99,4.64,3.54,9.5,4.6,14.55,1.09,5.17,1.67,10.52,1.67,16.01,0,5.2-.52,10.27-1.5,15.19-.94,4.73-2.33,9.31-4.09,13.69-1.91,4.76-4.28,9.28-7.06,13.53ZM218.13,121.18l.03.37-.03-.37ZM218.34,123.77c.01.19.03.39.04.58-.01-.19-.02-.39-.04-.58ZM218.48,126.42c.01.21.02.43.03.64,0-.21-.02-.43-.03-.64Z"/>
  <path class="st8" d="M211.98,112.27c-1.16-5.5-2.85-10.8-5.02-15.85-2.06-4.8-4.56-9.37-7.43-13.67-3.09-4.62-6.62-8.92-10.54-12.84-4.13-4.13-8.7-7.82-13.61-11.03-4.62-3.02-9.55-5.6-14.73-7.68-4.77-1.92-9.75-3.43-14.91-4.45-1.2-.24-2.41-.45-3.63-.63-.38-.06-.75-.11-1.13-.16-.88-.12-1.76-.23-2.65-.33-.4-.04-.8-.09-1.2-.13-1.12-.1-2.24-.19-3.36-.25l-.39-.03c-1.38-.07-2.77-.11-4.17-.11-1.48,0-2.94.04-4.4.12h0,0,0l-.36.03c-1.21.07-2.41.16-3.6.28-.43.04-.85.09-1.27.14-.94.11-1.86.23-2.79.37-.4.06-.8.11-1.2.18-1.28.21-2.56.44-3.82.7-5.5,1.16-10.8,2.85-15.84,5.01-4.8,2.06-9.37,4.56-13.67,7.43-4.62,3.09-8.92,6.62-12.84,10.54-4.13,4.13-7.82,8.7-11.03,13.61-3.02,4.62-5.6,9.55-7.68,14.73-1.92,4.77-3.43,9.76-4.45,14.91-1.07,5.35-1.64,10.88-1.64,16.54,0,5.98.63,11.81,1.82,17.44,1.16,5.5,2.85,10.8,5.01,15.85,2.06,4.8,4.56,9.37,7.43,13.67,3.09,4.62,6.62,8.92,10.54,12.84,4.13,4.13,8.7,7.82,13.61,11.04,4.62,3.02,9.55,5.6,14.73,7.68,4.77,1.92,9.76,3.43,14.91,4.45,1.2.24,2.41.45,3.63.63.37.06.75.11,1.13.16.88.12,1.76.23,2.65.33.4.05.8.09,1.2.13,1.12.11,2.24.19,3.37.25,1.51.08,3.02.13,4.55.13,5.98,0,11.8-.63,17.44-1.82,5.49-1.15,10.8-2.85,15.85-5.01,4.8-2.06,9.37-4.56,13.67-7.43,4.62-3.09,8.92-6.62,12.84-10.54,4.13-4.13,7.82-8.7,11.03-13.61,3.02-4.62,5.6-9.55,7.68-14.73,1.92-4.77,3.43-9.76,4.45-14.91,1.06-5.35,1.64-10.88,1.64-16.54,0-5.98-.64-11.81-1.82-17.43ZM143.18,46.3c-.25-.04-.51-.09-.76-.13.26.04.51.09.76.13ZM140.47,45.89c-.64-.08-1.27-.16-1.9-.24.64.07,1.27.15,1.9.24ZM136.99,45.48c-1.06-.1-2.13-.18-3.2-.24,1.07.06,2.14.14,3.2.24ZM124.4,45.25c-1.15.07-2.3.16-3.44.27,1.14-.11,2.29-.2,3.44-.27ZM119.31,45.71c-.67.08-1.34.17-2.01.26.67-.1,1.34-.18,2.01-.26ZM115.25,46.29c-.26.04-.52.1-.78.14.26-.05.52-.1.78-.14ZM115.2,213.12c.26.04.51.09.77.14-.26-.04-.51-.09-.77-.14ZM117.92,213.53c.64.09,1.27.17,1.91.24-.64-.07-1.28-.15-1.91-.24ZM121.4,213.93c1.07.1,2.14.18,3.21.24-1.08-.06-2.15-.14-3.21-.24Z"/>
  <g>
    <path class="st15" d="M47.04,164.87c-2.29-5.33-4.07-10.94-5.28-16.74-.5-2.4-.91-4.84-1.21-7.3l-21.09,2.64c.38,3.05.88,6.07,1.5,9.04,1.51,7.19,3.71,14.12,6.54,20.73.52,1.22,1.09,2.43,1.66,3.63l19.22-9.06c-.46-.97-.91-1.94-1.34-2.93Z"/>
    <path class="st15" d="M221.69,190.35l-17.78-11.65c-3.36,5.12-7.23,9.88-11.54,14.2-2.33,2.33-4.8,4.51-7.37,6.57l13.27,16.59c3.19-2.55,6.24-5.25,9.12-8.13,5.34-5.34,10.13-11.23,14.29-17.57Z"/>
    <path class="st15" d="M95.96,212.67c-4.07-1.63-8-3.56-11.75-5.75l-10.7,18.36c4.64,2.71,9.5,5.1,14.55,7.12,5.74,2.3,11.71,4.13,17.88,5.45l4.47-20.79c-4.98-1.07-9.81-2.53-14.45-4.38Z"/>
    <path class="st15" d="M211.36,94.55c2.29,5.33,4.07,10.94,5.28,16.74.5,2.4.9,4.84,1.21,7.3l21.09-2.64c-.38-3.05-.88-6.07-1.5-9.04-1.51-7.19-3.71-14.12-6.54-20.73-.53-1.22-1.09-2.43-1.66-3.63l-19.22,9.06c.46.97.91,1.94,1.34,2.93Z"/>
    <path class="st15" d="M162.43,46.75c4.08,1.63,8,3.56,11.75,5.75l10.7-18.36c-4.64-2.71-9.5-5.1-14.55-7.12-5.74-2.3-11.71-4.13-17.88-5.45l-4.47,20.79c4.98,1.07,9.81,2.53,14.44,4.38Z"/>
    <path class="st15" d="M66.02,66.53c2.33-2.33,4.8-4.51,7.37-6.57l-13.27-16.59c-3.18,2.55-6.24,5.25-9.12,8.13-5.34,5.34-10.13,11.23-14.29,17.57l17.77,11.65c3.36-5.12,7.23-9.88,11.54-14.19Z"/>
  </g>
  <path class="st7" d="M199.06,115c-.98-4.64-2.4-9.11-4.23-13.37-1.74-4.05-3.84-7.91-6.27-11.54-2.61-3.9-5.59-7.53-8.9-10.84-3.49-3.49-7.34-6.6-11.49-9.31-3.9-2.55-8.06-4.73-12.43-6.49-4.03-1.62-8.23-2.89-12.58-3.76-4.52-.9-9.18-1.38-13.96-1.38-5.04,0-9.96.53-14.71,1.53-4.64.98-9.11,2.4-13.37,4.23-4.05,1.74-7.91,3.84-11.54,6.27-3.9,2.61-7.53,5.59-10.84,8.9-3.49,3.49-6.6,7.34-9.31,11.49-2.55,3.9-4.73,8.06-6.49,12.43-1.62,4.03-2.89,8.23-3.76,12.58-.9,4.52-1.38,9.18-1.38,13.96,0,5.04.53,9.96,1.53,14.71.98,4.64,2.4,9.11,4.23,13.37,1.74,4.05,3.84,7.91,6.27,11.54,2.61,3.9,5.59,7.53,8.9,10.84,3.49,3.49,7.34,6.6,11.49,9.31,3.9,2.55,8.06,4.73,12.43,6.49,4.03,1.62,8.23,2.89,12.58,3.76,3.4.68,6.89,1.12,10.44,1.29-3.5-.17-6.93-.61-10.27-1.27-4.3-.86-8.45-2.11-12.44-3.71-4.32-1.74-8.43-3.89-12.28-6.41-4.09-2.68-7.9-5.76-11.35-9.2-3.27-3.27-6.21-6.86-8.79-10.71-2.4-3.58-4.48-7.4-6.2-11.4-1.81-4.21-3.22-8.63-4.18-13.21-.99-4.69-1.51-9.56-1.51-14.54,0-4.72.47-9.33,1.36-13.79.86-4.3,2.11-8.45,3.71-12.44,1.74-4.32,3.89-8.43,6.41-12.29,2.68-4.09,5.76-7.9,9.2-11.35,3.27-3.27,6.86-6.21,10.71-8.79,3.58-2.4,7.4-4.48,11.4-6.2,4.21-1.81,8.63-3.22,13.21-4.18,4.7-.99,9.56-1.51,14.54-1.51,4.72,0,9.33.48,13.8,1.36,4.3.86,8.45,2.11,12.44,3.71,4.32,1.74,8.43,3.89,12.29,6.41,4.09,2.68,7.9,5.76,11.35,9.2,3.27,3.27,6.21,6.86,8.79,10.71,2.4,3.58,4.48,7.4,6.2,11.4,1.81,4.21,3.22,8.63,4.18,13.21.99,4.69,1.51,9.56,1.51,14.54,0,4.72-.47,9.33-1.36,13.8-.85,4.3-2.11,8.45-3.71,12.43-1.74,4.32-3.89,8.43-6.41,12.29-2.68,4.09-5.76,7.9-9.2,11.35-3.27,3.27-6.86,6.21-10.71,8.79-3.58,2.4-7.4,4.48-11.4,6.2-4.21,1.81-8.63,3.22-13.22,4.18-4.69.99-9.56,1.51-14.54,1.51,5.04,0,9.96-.53,14.72-1.53,4.64-.98,9.11-2.4,13.37-4.23,4.05-1.74,7.91-3.84,11.54-6.27,3.9-2.61,7.53-5.59,10.84-8.9,3.49-3.49,6.6-7.34,9.31-11.49,2.55-3.9,4.73-8.06,6.48-12.43,1.62-4.03,2.89-8.23,3.76-12.58.9-4.52,1.38-9.18,1.38-13.96,0-5.04-.53-9.96-1.53-14.71Z"/>
  <path class="st14" d="M62.98,86.53c-2.87,4.39-5.25,9.01-7.15,13.78-1.81,4.53-3.18,9.2-4.12,13.94-1.01,5.1-1.52,10.27-1.52,15.45,0,5.46.58,10.92,1.7,16.28,1.06,5.05,2.61,10.01,4.66,14.81,1.89,4.42,4.18,8.71,6.91,12.79,2.83,4.24,6.11,8.27,9.85,12.01,3.95,3.95,8.22,7.38,12.72,10.32,4.4,2.87,9.01,5.25,13.78,7.15,4.53,1.81,9.2,3.18,13.94,4.12,5.1,1.01,10.27,1.52,15.45,1.52,5.46,0,10.92-.58,16.28-1.7,5.05-1.06,10.01-2.61,14.81-4.66,4.42-1.89,8.71-4.18,12.8-6.91,4.24-2.83,8.27-6.11,12.01-9.85,3.95-3.95,7.38-8.22,10.32-12.72,2.87-4.39,5.25-9.01,7.15-13.78,1.81-4.53,3.18-9.2,4.12-13.94,1.01-5.1,1.52-10.27,1.52-15.45,0-5.46-.58-10.92-1.7-16.28-1.06-5.05-2.61-10.01-4.66-14.81-1.88-4.42-4.18-8.71-6.91-12.79-2.83-4.24-6.11-8.27-9.85-12.01-3.95-3.95-8.22-7.38-12.72-10.32-4.4-2.87-9.01-5.25-13.78-7.16-4.53-1.81-9.2-3.18-13.94-4.12-5.1-1.01-10.27-1.52-15.45-1.52-5.46,0-10.92.58-16.28,1.7-5.05,1.06-10.01,2.61-14.81,4.66-4.42,1.89-8.71,4.18-12.79,6.91-4.24,2.83-8.27,6.11-12.01,9.85-3.95,3.95-7.38,8.22-10.32,12.72ZM100.62,62.93c4.41-1.88,8.97-3.31,13.61-4.28,4.93-1.03,9.95-1.56,14.97-1.56,4.76,0,9.52.47,14.2,1.4,4.36.86,8.65,2.13,12.82,3.79,4.38,1.75,8.63,3.94,12.67,6.58,4.14,2.7,8.06,5.86,11.69,9.48,3.44,3.44,6.45,7.14,9.05,11.04,2.51,3.75,4.62,7.69,6.35,11.76,1.88,4.41,3.31,8.97,4.28,13.61,1.03,4.93,1.56,9.95,1.56,14.96,0,4.76-.47,9.52-1.4,14.2-.86,4.36-2.13,8.65-3.79,12.82-1.75,4.38-3.94,8.63-6.58,12.67-2.7,4.14-5.86,8.06-9.49,11.69-3.43,3.44-7.14,6.45-11.04,9.05-3.75,2.51-7.69,4.62-11.76,6.35-4.41,1.88-8.97,3.31-13.61,4.28-4.93,1.03-9.95,1.56-14.97,1.56-4.76,0-9.52-.47-14.2-1.4-4.36-.86-8.65-2.12-12.82-3.79-4.38-1.75-8.63-3.94-12.67-6.58-4.14-2.7-8.06-5.86-11.69-9.49-3.44-3.44-6.45-7.14-9.05-11.04-2.51-3.75-4.62-7.69-6.35-11.76-1.88-4.41-3.31-8.97-4.28-13.61-1.03-4.93-1.56-9.95-1.56-14.96,0-4.76.47-9.52,1.4-14.2.86-4.36,2.13-8.65,3.79-12.82,1.75-4.38,3.94-8.63,6.58-12.67,2.7-4.14,5.86-8.06,9.49-11.69,3.44-3.44,7.14-6.45,11.04-9.05,3.75-2.51,7.69-4.62,11.76-6.35Z"/>
  <path class="st11" d="M188.56,90.09l5.22-3.48c-2.84-4.24-6.08-8.19-9.68-11.79l-4.44,4.44c3.31,3.31,6.29,6.94,8.9,10.84Z"/>
  <path class="st2" d="M194.83,101.62l5.77-2.47c-1.89-4.41-4.18-8.61-6.83-12.55l-5.22,3.48c2.43,3.63,4.53,7.48,6.27,11.54Z"/>
  <path class="st11" d="M199.06,115l6.14-1.29c-1.06-5.05-2.61-9.91-4.6-14.55l-5.77,2.47c1.83,4.26,3.26,8.73,4.23,13.37Z"/>
  <path class="st2" d="M179.66,180.17l4.44,4.44c3.79-3.79,7.18-7.99,10.13-12.5l-5.26-3.43c-2.71,4.14-5.82,8-9.31,11.49Z"/>
  <path class="st2" d="M62.94,103.17l-5.83-2.34c-1.76,4.38-3.15,8.96-4.09,13.69l6.16,1.23c.87-4.35,2.14-8.56,3.76-12.58Z"/>
  <path class="st11" d="M59.33,144.42l-6.14,1.29c1.06,5.05,2.61,9.91,4.61,14.55l5.77-2.47c-1.83-4.26-3.26-8.73-4.23-13.37Z"/>
  <path class="st11" d="M59.18,115.75l-6.16-1.23c-.98,4.91-1.5,9.99-1.5,15.19h6.28c0-4.78.48-9.44,1.38-13.96Z"/>
  <path class="st2" d="M57.8,129.71h-6.28c0,5.49.58,10.84,1.67,16.01l6.14-1.29c-1-4.75-1.53-9.67-1.53-14.71Z"/>
  <path class="st2" d="M63.56,157.8l-5.77,2.47c1.89,4.41,4.18,8.61,6.82,12.55l5.22-3.49c-2.43-3.63-4.53-7.48-6.27-11.54Z"/>
  <path class="st2" d="M78.73,180.17l-4.44,4.44c3.79,3.79,7.99,7.18,12.5,10.13l3.43-5.26c-4.14-2.71-8-5.82-11.49-9.31Z"/>
  <path class="st11" d="M69.84,169.33l-5.22,3.49c2.84,4.24,6.08,8.19,9.68,11.79l4.44-4.44c-3.31-3.31-6.29-6.94-8.9-10.84Z"/>
  <path class="st11" d="M90.22,189.48l-3.43,5.26c4.24,2.77,8.77,5.14,13.53,7.06l2.33-5.83c-4.37-1.76-8.53-3.93-12.43-6.49Z"/>
  <path class="st11" d="M69.42,90.73l-5.26-3.43c-2.77,4.24-5.14,8.77-7.06,13.52l5.83,2.34c1.76-4.37,3.94-8.53,6.49-12.43Z"/>
  <path class="st2" d="M129.2,58.31v-6.28c-5.49,0-10.84.58-16.01,1.67l1.29,6.14c4.75-1,9.67-1.53,14.71-1.53Z"/>
  <path class="st2" d="M101.11,64.08l-2.47-5.77c-4.41,1.89-8.61,4.18-12.55,6.82l3.48,5.22c3.63-2.43,7.48-4.53,11.54-6.27Z"/>
  <path class="st11" d="M114.48,59.84l-1.29-6.14c-5.05,1.06-9.91,2.61-14.55,4.61l2.47,5.77c4.26-1.83,8.73-3.26,13.37-4.23Z"/>
  <path class="st2" d="M78.73,79.25l-4.44-4.44c-3.79,3.79-7.18,7.99-10.13,12.5l5.26,3.43c2.71-4.14,5.82-8,9.31-11.49Z"/>
  <path class="st11" d="M89.57,70.35l-3.48-5.22c-4.24,2.84-8.19,6.08-11.79,9.68l4.44,4.44c3.31-3.31,6.94-6.29,10.84-8.9Z"/>
  <path class="st2" d="M199.06,115c1,4.75,1.53,9.67,1.53,14.71h6.28c0-5.49-.58-10.84-1.67-16.01l-6.14,1.29Z"/>
  <path class="st11" d="M199.21,143.67l6.16,1.23c.98-4.91,1.5-9.99,1.5-15.19h-6.28c0,4.78-.48,9.44-1.38,13.96Z"/>
  <path class="st2" d="M179.66,79.25l4.44-4.44c-3.79-3.79-7.99-7.18-12.5-10.13l-3.43,5.26c4.15,2.71,8,5.82,11.49,9.31Z"/>
  <path class="st2" d="M195.46,156.25l5.83,2.33c1.76-4.38,3.15-8.96,4.09-13.69l-6.16-1.23c-.86,4.35-2.14,8.55-3.76,12.58Z"/>
  <path class="st2" d="M102.65,195.97l-2.33,5.83c4.38,1.76,8.96,3.15,13.69,4.09l1.23-6.16c-4.35-.87-8.56-2.14-12.58-3.76Z"/>
  <path class="st11" d="M168.17,69.93l3.43-5.26c-4.24-2.77-8.77-5.14-13.53-7.06l-2.33,5.83c4.37,1.76,8.53,3.94,12.43,6.49Z"/>
  <path class="st2" d="M155.74,63.45l2.33-5.83c-4.38-1.76-8.96-3.15-13.69-4.09l-1.23,6.16c4.35.87,8.56,2.14,12.58,3.76Z"/>
  <path class="st11" d="M188.97,168.69l5.26,3.43c2.77-4.24,5.14-8.77,7.06-13.53l-5.83-2.33c-1.76,4.37-3.93,8.53-6.48,12.43Z"/>
  <path class="st2" d="M129.2,201.11v6.28c5.49,0,10.84-.58,16.01-1.67l-1.29-6.14c-4.75,1-9.67,1.53-14.72,1.53Z"/>
  <path class="st11" d="M143.16,59.69l1.23-6.16c-4.91-.98-9.99-1.5-15.19-1.5v6.28c4.78,0,9.44.48,13.96,1.38Z"/>
  <path class="st11" d="M115.24,199.73l-1.23,6.16c4.91.98,9.99,1.5,15.19,1.5v-6.28c-4.78,0-9.44-.48-13.96-1.38Z"/>
  <path class="st11" d="M143.91,199.57l1.29,6.14c5.05-1.06,9.92-2.61,14.55-4.61l-2.47-5.77c-4.26,1.83-8.74,3.26-13.37,4.23Z"/>
  <path class="st2" d="M157.28,195.34l2.47,5.77c4.41-1.89,8.61-4.18,12.55-6.82l-3.48-5.22c-3.63,2.43-7.49,4.53-11.54,6.27Z"/>
  <path class="st11" d="M168.82,189.07l3.48,5.22c4.24-2.84,8.19-6.08,11.79-9.68l-4.44-4.44c-3.31,3.31-6.94,6.29-10.84,8.9Z"/>
  <path class="st4" d="M40.97,143.78c.04.24.06.48.1.72-.04-.24-.07-.48-.1-.72Z"/>
  <path class="st4" d="M192.38,192.89c4.32-4.32,8.18-9.07,11.54-14.2-3.36,5.12-7.23,9.88-11.54,14.2Z"/>
  <path class="st4" d="M103.11,215.17c2.39.73,4.82,1.35,7.29,1.88-2.47-.53-4.9-1.15-7.29-1.88Z"/>
  <path class="st4" d="M99.56,214.01c.96.34,1.94.65,2.92.95-.98-.3-1.95-.62-2.92-.95Z"/>
  <path class="st4" d="M217.32,114.92l.05.35-.05-.35Z"/>
  <path class="st13" d="M59.89,73.33c-1.92,2.36-3.72,4.82-5.39,7.37,1.68-2.55,3.48-5.01,5.39-7.37Z"/>
  <path class="st13" d="M62.86,69.86c-.94,1.04-1.84,2.11-2.73,3.19.89-1.08,1.79-2.15,2.73-3.19Z"/>
  <path class="st3" d="M30.61,176.17c-.56-1.18-1.11-2.37-1.63-3.57-2.79-6.51-4.96-13.34-6.45-20.42-.61-2.93-1.1-5.9-1.48-8.91l-1.6.2c.38,3.05.88,6.07,1.5,9.04,1.51,7.19,3.71,14.12,6.54,20.73.52,1.22,1.09,2.43,1.66,3.63l1.46-.69Z"/>
  <path class="st0" d="M206.26,206.78c-2.84,2.84-5.85,5.5-8.99,8.01l1,1.26c3.19-2.55,6.24-5.25,9.12-8.13,5.34-5.34,10.13-11.23,14.29-17.57l-1.35-.88c-4.1,6.25-8.82,12.05-14.08,17.31Z"/>
  <path class="st10" d="M88.66,230.9c-4.97-1.99-9.76-4.34-14.33-7.02l-.81,1.39c4.64,2.71,9.5,5.1,14.55,7.12,5.74,2.3,11.71,4.13,17.88,5.45l.34-1.57c-6.08-1.3-11.96-3.1-17.62-5.37Z"/>
  <path class="st6" d="M229.42,86.82c2.79,6.51,4.96,13.34,6.45,20.43.61,2.93,1.1,5.9,1.48,8.91l1.59-.2c-.38-3.05-.88-6.07-1.5-9.04-1.51-7.19-3.71-14.12-6.54-20.73-.53-1.22-1.09-2.43-1.66-3.63l-1.46.69c.56,1.18,1.12,2.37,1.63,3.57Z"/>
  <path class="st9" d="M169.74,28.52c4.97,1.99,9.76,4.34,14.33,7.02l.81-1.39c-4.64-2.71-9.5-5.1-14.55-7.12-5.74-2.3-11.71-4.13-17.88-5.45l-.34,1.57c6.07,1.3,11.96,3.1,17.62,5.37Z"/>
  <path class="st15" d="M21.05,143.27c-.55-4.44-.84-8.97-.84-13.56,0-7.29.72-14.42,2.09-21.31,1.32-6.65,3.24-13.07,5.71-19.23,2.68-6.68,6-13.04,9.89-18.99l.15-.22-1.35-.88-.15.22c-3.95,6.04-7.32,12.49-10.04,19.27-2.5,6.24-4.45,12.77-5.79,19.51-1.39,6.99-2.12,14.23-2.12,21.63,0,4.66.3,9.25.86,13.76l1.6-.2Z"/>
  <path class="st15" d="M74.32,223.89c-1.58-.92-3.13-1.88-4.66-2.88-6.33-4.14-12.21-8.91-17.53-14.23-5.05-5.05-9.6-10.59-13.59-16.55-2.98-4.46-5.63-9.16-7.94-14.05l-1.46.69c2.34,4.96,5.03,9.73,8.05,14.26,4.04,6.05,8.66,11.67,13.79,16.8,5.4,5.4,11.37,10.24,17.79,14.44,1.55,1.01,3.13,1.99,4.73,2.92l.81-1.39Z"/>
  <path class="st15" d="M197.28,214.79c-2.44,1.95-4.96,3.83-7.57,5.57-5.54,3.7-11.43,6.91-17.62,9.57-6.51,2.79-13.34,4.96-20.43,6.45-7.25,1.52-14.76,2.32-22.46,2.32-7.29,0-14.42-.72-21.31-2.09-.54-.11-1.07-.22-1.61-.34l-.34,1.57c.54.12,1.09.24,1.63.34,7,1.39,14.22,2.12,21.63,2.12,7.82,0,15.44-.81,22.8-2.36,7.19-1.51,14.13-3.71,20.73-6.54,6.28-2.69,12.27-5.95,17.89-9.71,2.65-1.77,5.2-3.67,7.67-5.65l-1-1.26Z"/>
  <path class="st15" d="M238.94,115.95l-1.59.2h0c.55,4.44.84,8.97.84,13.56,0,7.29-.72,14.42-2.09,21.31-1.32,6.65-3.24,13.07-5.7,19.23-2.68,6.68-6,13.04-9.9,18.99l-.15.22,1.35.88.15-.22c3.95-6.04,7.32-12.49,10.04-19.27,2.5-6.24,4.45-12.77,5.79-19.51,1.39-6.99,2.12-14.23,2.12-21.63,0-4.66-.3-9.25-.86-13.76Z"/>
  <path class="st15" d="M184.07,35.53c1.58.92,3.13,1.88,4.66,2.88,6.33,4.14,12.21,8.91,17.53,14.23,5.05,5.05,9.6,10.6,13.59,16.55,2.98,4.46,5.62,9.16,7.93,14.05l1.46-.69c-2.34-4.96-5.03-9.73-8.05-14.26-4.05-6.04-8.66-11.67-13.79-16.8-5.4-5.4-11.37-10.25-17.79-14.44-1.55-1.01-3.12-1.99-4.73-2.92l-.81,1.39Z"/>
  <path class="st15" d="M61.12,44.63c2.44-1.95,4.96-3.83,7.56-5.57,5.54-3.7,11.43-6.91,17.62-9.57,6.51-2.79,13.34-4.96,20.42-6.45,7.25-1.52,14.76-2.32,22.47-2.32,7.3,0,14.42.72,21.32,2.09.54.11,1.07.22,1.61.34l.34-1.57c-.54-.12-1.08-.24-1.63-.34-6.99-1.39-14.22-2.12-21.63-2.12-7.82,0-15.44.82-22.8,2.36-7.19,1.51-14.12,3.71-20.73,6.54-6.28,2.69-12.27,5.95-17.89,9.71-2.65,1.77-5.2,3.67-7.67,5.65l1.01,1.26Z"/>
  <path class="st12" d="M52.13,52.64c2.84-2.84,5.85-5.5,8.99-8.01l-1.01-1.26c-3.18,2.55-6.24,5.25-9.12,8.13-5.34,5.34-10.13,11.23-14.29,17.57l1.35.88c4.1-6.25,8.82-12.05,14.08-17.31Z"/>
  <path class="st13" d="M148.19,222.92c0-2.49,2.02-4.51,4.51-4.51s4.51,2.02,4.51,4.51-2.02,4.51-4.51,4.51-4.51-2.02-4.51-4.51Z"/>
  <path class="st13" d="M102.47,36.5c0-2.49,2.02-4.51,4.51-4.51s4.51,2.02,4.51,4.51-2.02,4.51-4.51,4.51-4.51-2.02-4.51-4.51Z"/>
  <path class="st13" d="M30.35,112.81c0-2.49,2.02-4.51,4.51-4.51s4.51,2.02,4.51,4.51-2.02,4.51-4.51,4.51-4.51-2.02-4.51-4.51Z"/>
  <path class="st13" d="M55.46,196.2c0-2.49,2.02-4.51,4.51-4.51s4.51,2.02,4.51,4.51-2.02,4.51-4.51,4.51-4.51-2.02-4.51-4.51Z"/>
  <path class="st13" d="M217.74,151.76c0-2.49,2.02-4.51,4.51-4.51s4.51,2.02,4.51,4.51-2.02,4.51-4.51,4.51-4.51-2.02-4.51-4.51Z"/>
  <path class="st13" d="M195.53,65.8c0-2.49,2.02-4.51,4.51-4.51s4.51,2.02,4.51,4.51-2.02,4.51-4.51,4.51-4.51-2.02-4.51-4.51Z"/>
  <path class="st5" d="M189,168.71c2.59-3.97,4.74-8.14,6.46-12.45,1.63-4.1,2.87-8.31,3.72-12.59.91-4.6,1.37-9.28,1.37-13.95,0-4.93-.52-9.86-1.54-14.71-.95-4.56-2.36-9.04-4.2-13.38-1.7-4-3.78-7.87-6.24-11.56-.57-.86-1.17-1.7-1.79-2.54-.19-.26-.38-.51-.58-.77-.45-.6-.91-1.19-1.39-1.78-.21-.27-.43-.53-.64-.79-.6-.73-1.22-1.45-1.86-2.16l-.22-.25c-.78-.87-1.59-1.72-2.42-2.55-.88-.88-1.78-1.73-2.7-2.56h0s0,0,0,0h0s-.23-.2-.23-.2c-.76-.68-1.53-1.34-2.32-1.98-.28-.23-.56-.45-.84-.67-.62-.49-1.25-.98-1.88-1.45-.27-.2-.54-.41-.82-.61-.89-.64-1.79-1.26-2.7-1.86-3.97-2.59-8.14-4.74-12.45-6.46-4.1-1.63-8.31-2.87-12.59-3.72-4.6-.91-9.28-1.37-13.96-1.37-4.93,0-9.86.52-14.7,1.54-4.56.95-9.04,2.36-13.38,4.21-3.99,1.7-7.87,3.78-11.56,6.24-3.83,2.56-7.47,5.52-10.85,8.9-3.57,3.57-6.67,7.42-9.32,11.49-2.59,3.97-4.74,8.14-6.46,12.45-1.63,4.1-2.88,8.31-3.72,12.59-.91,4.6-1.37,9.28-1.37,13.95,0,4.93.52,9.86,1.54,14.71.95,4.56,2.36,9.04,4.21,13.38,1.7,3.99,3.78,7.87,6.24,11.56.57.86,1.17,1.7,1.79,2.54.19.26.38.51.58.77.45.6.91,1.19,1.39,1.78.21.26.42.53.64.79.6.73,1.22,1.45,1.86,2.16.85.95,1.73,1.88,2.64,2.8,3.57,3.57,7.42,6.67,11.49,9.32,3.97,2.59,8.14,4.75,12.45,6.46,4.1,1.63,8.31,2.88,12.59,3.72,4.6.91,9.28,1.37,13.95,1.37,4.93,0,9.86-.52,14.71-1.54,4.56-.95,9.04-2.36,13.38-4.21,3.99-1.7,7.86-3.78,11.55-6.24,3.83-2.56,7.47-5.52,10.85-8.9,3.57-3.57,6.67-7.42,9.32-11.49ZM187.32,88.28c-.13-.18-.25-.36-.38-.53.13.18.25.36.38.53ZM185.95,86.42c-.33-.43-.66-.86-1-1.28.34.42.67.85,1,1.28ZM184.11,84.1c-.57-.69-1.16-1.38-1.77-2.06.61.68,1.19,1.36,1.77,2.06ZM176.73,76.45c-.72-.65-1.46-1.28-2.21-1.89.75.61,1.49,1.24,2.21,1.89ZM173.43,73.68c-.45-.35-.9-.7-1.36-1.04.46.34.91.69,1.36,1.04ZM170.66,71.6c-.18-.13-.37-.25-.55-.38.18.13.37.25.55.38ZM71.07,171.13c.13.18.25.36.38.54-.13-.18-.25-.36-.38-.54ZM72.44,173c.33.43.66.86,1,1.28-.34-.43-.67-.85-1-1.28ZM74.28,175.32c.58.69,1.17,1.38,1.77,2.06-.61-.68-1.2-1.37-1.77-2.06Z"/>
  <path class="st8" d="M197.57,115.31c-.96-4.54-2.35-8.92-4.14-13.09-1.7-3.96-3.76-7.74-6.14-11.29-2.56-3.82-5.47-7.37-8.71-10.61-3.41-3.41-7.19-6.46-11.24-9.11-3.82-2.5-7.89-4.63-12.17-6.35-3.94-1.59-8.06-2.83-12.32-3.68-.99-.2-1.99-.37-3-.52-.31-.05-.63-.09-.94-.13-.73-.1-1.46-.19-2.19-.27-.33-.04-.66-.07-1-.11-.92-.09-1.85-.16-2.78-.21l-.32-.02c-1.14-.06-2.29-.09-3.44-.09-1.22,0-2.43.03-3.63.1h0s0,0,0,0h0s-.29.02-.29.02c-1,.06-1.99.14-2.97.23-.35.03-.7.08-1.05.12-.77.09-1.54.19-2.3.3-.33.05-.66.09-.99.15-1.06.17-2.11.36-3.15.58-4.54.95-8.92,2.35-13.09,4.14-3.97,1.7-7.74,3.76-11.29,6.14-3.82,2.56-7.37,5.47-10.61,8.71-3.41,3.41-6.46,7.19-9.11,11.24-2.5,3.81-4.63,7.89-6.35,12.17-1.59,3.94-2.83,8.06-3.68,12.32-.88,4.42-1.35,8.99-1.35,13.66,0,4.94.52,9.75,1.5,14.4.95,4.54,2.35,8.92,4.14,13.09,1.7,3.97,3.76,7.74,6.14,11.29,2.56,3.82,5.47,7.37,8.71,10.61,3.41,3.41,7.19,6.46,11.24,9.11,3.82,2.5,7.89,4.63,12.17,6.35,3.94,1.59,8.06,2.83,12.32,3.68.99.2,1.99.37,3,.52.31.05.62.09.93.13.73.1,1.46.19,2.19.27.33.04.66.07.99.11.92.09,1.85.16,2.78.21,1.25.07,2.5.11,3.76.11,4.94,0,9.75-.52,14.4-1.5,4.54-.95,8.92-2.35,13.09-4.14,3.96-1.7,7.74-3.76,11.29-6.14,3.82-2.56,7.37-5.47,10.61-8.71,3.41-3.41,6.46-7.19,9.11-11.24,2.5-3.81,4.63-7.89,6.35-12.17,1.58-3.94,2.83-8.06,3.68-12.32.88-4.42,1.35-8.99,1.35-13.66,0-4.94-.52-9.75-1.5-14.4ZM140.75,60.82c-.21-.03-.42-.08-.63-.11.21.03.42.07.63.11ZM138.51,60.48c-.52-.07-1.05-.14-1.57-.2.53.06,1.05.12,1.57.2ZM135.64,60.15c-.88-.08-1.76-.15-2.65-.2.89.05,1.77.12,2.65.2ZM125.24,59.96c-.95.05-1.9.13-2.84.22.94-.09,1.89-.17,2.84-.22ZM121.03,60.34c-.56.07-1.11.14-1.66.22.55-.08,1.11-.15,1.66-.22ZM117.68,60.81c-.22.04-.43.08-.64.12.22-.04.43-.08.64-.12ZM117.64,198.59c.21.04.42.08.64.11-.21-.03-.42-.07-.64-.11ZM119.88,198.94c.52.07,1.05.14,1.58.2-.53-.06-1.06-.13-1.58-.2ZM122.75,199.27c.88.08,1.76.15,2.65.2-.89-.05-1.77-.12-2.65-.2Z"/>
  <path class="st1" d="M148.68,118.68l-47.78-27.58v27.67l16.07,9.28v-9.1l15.63,9.02,7.62,4.39-7.89,4.57-15.35,8.86v-8.79l-16.07,9.28v27.36l47.5-27.42,23.97-13.84-23.7-13.66Z"/>
</svg>